<svg width="60" height="60" viewBox="0 0 60 60" fill="none" xmlns="http://www.w3.org/2000/svg"><path fill="#fff" d="M0 0h60v60H0z"/><path fill-rule="evenodd" clip-rule="evenodd" d="M32.67 26a2.67 2.67 0 1 1-5.34 0 2.67 2.67 0 0 1 5.34 0ZM34 26a4 4 0 1 1-8 0 4 4 0 0 1 8 0Zm-8.8 8.31a7.55 7.55 0 0 1 4.8-1.64c1.84 0 3.56.6 4.8 1.64A4.83 4.83 0 0 1 36.67 38H38c0-1.77-.84-3.46-2.34-4.71A8.88 8.88 0 0 0 30 31.33c-2.12 0-4.16.7-5.66 1.96A6.16 6.16 0 0 0 22 38h1.33c0-1.33.63-2.66 1.87-3.69Z" fill="#333"/></svg>