<svg width="60" height="60" viewBox="0 0 60 60" fill="none" xmlns="http://www.w3.org/2000/svg"><path fill="#fff" d="M0 0h60v60H0z"/><path fill-rule="evenodd" clip-rule="evenodd" d="m27.66 25.88.23 2.79h4.22l.23-2.8a2.35 2.35 0 1 0-4.68 0Zm5.78 2.79.23-2.68a3.68 3.68 0 1 0-7.34 0l.23 2.68H22l.2 1.33.8 5.71A2.67 2.67 0 0 0 25.66 38h8.7c1.33 0 2.46-.98 2.64-2.29l.82-5.71.19-1.33H33.45Zm-.1 1.33h-.06l-.22 2.67h3.02l.38-2.67h-3.13Zm-1.4 0h-3.88l.22 2.67h3.44l.22-2.67Zm-5.22 0H23.54l.38 2.67h3.02L26.72 30Zm1.9 6.67L28.38 34h3.22l-.22 2.67H28.6ZM32.94 34l-.23 2.67h1.63c.67 0 1.23-.5 1.32-1.15L35.9 34h-2.94Zm-5.9 0 .23 2.67h-1.63c-.67 0-1.23-.5-1.32-1.15L24.1 34h2.94Z" fill="#333"/></svg>